<?xml version="1.0" standalone="no"?>
<!DOCTYPE svg PUBLIC "-//W3C//DTD SVG 20010904//EN"
 "http://www.w3.org/TR/2001/REC-SVG-20010904/DTD/svg10.dtd">
<svg version="1.0" xmlns="http://www.w3.org/2000/svg"
 width="256.000000pt" height="256.000000pt" viewBox="0 0 256.000000 256.000000"
 preserveAspectRatio="xMidYMid meet">
<metadata>
Created by potrace 1.11, written by Peter Selinger 2001-2013
</metadata>
<g transform="translate(0.000000,256.000000) scale(0.100000,-0.100000)"
fill="#000000" stroke="none">
<path d="M1130 2544 c-206 -38 -288 -63 -420 -129 -344 -173 -594 -499 -677
-885 -25 -119 -25 -381 0 -500 108 -506 491 -889 997 -997 119 -25 381 -25
500 0 506 108 889 491 997 997 13 63 18 128 18 250 0 122 -5 187 -18 250 -108
502 -488 885 -987 995 -73 16 -355 29 -410 19z m369 -520 c160 -47 217 -238
126 -422 -90 -182 -322 -333 -409 -267 -30 23 -56 67 -56 96 0 24 3 25 49 25
92 0 219 101 277 220 36 73 31 145 -12 182 -25 22 -35 24 -92 19 -90 -7 -180
-54 -263 -136 -85 -86 -123 -161 -127 -257 -7 -131 43 -199 254 -350 198 -140
249 -210 248 -344 0 -93 -27 -159 -87 -218 -68 -65 -119 -87 -217 -90 -77 -3
-90 -1 -139 25 -30 15 -64 40 -74 55 -20 26 -20 27 4 74 29 58 52 74 77 56 64
-46 79 -52 133 -52 86 0 139 53 139 139 0 84 -45 139 -199 244 -204 139 -279
235 -300 381 -14 95 1 174 51 276 57 116 178 239 290 295 129 63 229 79 327
49z"/>
</g>
</svg>
